<?xml version="1.0" encoding="UTF-8" standalone="no"?><!DOCTYPE svg PUBLIC "-//W3C//DTD SVG 1.1//EN" "http://www.w3.org/Graphics/SVG/1.1/DTD/svg11.dtd"><svg width="100%" height="100%" viewBox="0 0 2084 2084" version="1.1" xmlns="http://www.w3.org/2000/svg" xmlns:xlink="http://www.w3.org/1999/xlink" xml:space="preserve" xmlns:serif="http://www.serif.com/" style="fill-rule:evenodd;clip-rule:evenodd;stroke-linejoin:round;stroke-miterlimit:1.41421;"><rect id="Github" x="0" y="0" width="2083.33" height="2083.33" style="fill:none;"/><clipPath id="_clip1"><rect x="0" y="0" width="2083.33" height="2083.33"/></clipPath><g clip-path="url(#_clip1)"><path d="M1041.67,0c-575.521,0 -1041.67,466.146 -1041.67,1041.67c0,460.937 298.177,850.26 712.24,988.281c52.083,9.114 71.614,-22.136 71.614,-49.479c0,-24.74 -1.302,-106.771 -1.302,-194.011c-261.719,48.177 -329.427,-63.802 -350.26,-122.396c-11.719,-29.947 -62.5,-122.395 -106.771,-147.135c-36.458,-19.531 -88.542,-67.708 -1.302,-69.01c82.031,-1.302 140.625,75.52 160.156,106.77c93.75,157.553 243.49,113.282 303.385,85.938c9.115,-67.708 36.459,-113.281 66.407,-139.323c-231.771,-26.042 -473.959,-115.885 -473.959,-514.323c0,-113.281 40.365,-207.031 106.771,-279.948c-10.416,-26.041 -46.875,-132.812 10.417,-276.041c0,0 87.239,-27.344 286.458,106.77c83.334,-23.437 171.875,-35.156 260.417,-35.156c88.542,0 177.083,11.719 260.417,35.156c199.218,-135.416 286.458,-106.77 286.458,-106.77c57.292,143.229 20.833,250 10.417,276.041c66.406,72.917 106.77,165.365 106.77,279.948c0,399.74 -243.489,488.281 -475.26,514.323c37.76,32.552 70.312,95.052 70.312,192.708c0,139.323 -1.302,251.302 -1.302,286.459c0,27.343 19.532,59.896 71.615,49.479c411.458,-138.021 709.635,-528.646 709.635,-988.281c0,-575.521 -466.145,-1041.67 -1041.67,-1041.67Z" style="fill:#f2f2f2;"/></g></svg>