<?xml version="1.0" encoding="UTF-8" standalone="no"?><!DOCTYPE svg PUBLIC "-//W3C//DTD SVG 1.1//EN" "http://www.w3.org/Graphics/SVG/1.1/DTD/svg11.dtd"><svg width="100%" height="100%" viewBox="0 0 2036 2084" version="1.1" xmlns="http://www.w3.org/2000/svg" xmlns:xlink="http://www.w3.org/1999/xlink" xml:space="preserve" xmlns:serif="http://www.serif.com/" style="fill-rule:evenodd;clip-rule:evenodd;stroke-linejoin:round;stroke-miterlimit:1.41421;"><rect id="Google" x="0" y="0" width="2035.83" height="2083.33" style="fill:none;"/><path d="M2034.76,1061.16c0,-85.353 -6.926,-147.638 -21.914,-212.229l-974.651,0l0,385.241l572.098,0c-11.53,95.738 -73.815,239.918 -212.23,336.801l-1.94,12.897l308.167,238.733l21.35,2.131c196.08,-181.091 309.12,-447.535 309.12,-763.574" style="fill:#4285f4;fill-rule:nonzero;"/><path d="M1038.19,2076.18c280.28,0 515.578,-92.279 687.445,-251.447l-327.577,-253.761c-87.659,61.132 -205.311,103.808 -359.868,103.808c-274.515,0 -507.506,-181.083 -590.561,-431.377l-12.174,1.034l-320.436,247.988l-4.19,11.649c170.706,339.106 521.35,572.106 927.361,572.106" style="fill:#34a853;fill-rule:nonzero;"/><path d="M447.632,1243.4c-21.915,-64.591 -34.598,-133.802 -34.598,-205.312c0,-71.517 12.683,-140.72 33.445,-205.311l-0.58,-13.757l-324.452,-251.972l-10.615,5.05c-70.356,140.72 -110.727,298.743 -110.727,465.99c0,167.248 40.371,325.263 110.727,465.983l336.8,-260.671" style="fill:#fbbc05;fill-rule:nonzero;"/><path d="M1038.19,401.392c194.927,0 326.416,84.2 401.392,154.564l292.971,-286.053c-179.93,-167.247 -414.083,-269.903 -694.363,-269.903c-406.011,0 -756.655,232.991 -927.361,572.098l335.647,260.679c84.208,-250.294 317.199,-431.385 591.714,-431.385" style="fill:#eb4335;fill-rule:nonzero;"/></svg>