<?xml version="1.0" encoding="UTF-8" standalone="no"?>
<!DOCTYPE svg PUBLIC "-//W3C//DTD SVG 1.1//EN" "http://www.w3.org/Graphics/SVG/1.1/DTD/svg11.dtd">
<svg width="100%" height="100%" viewBox="0 0 200 200" version="1.1" xmlns="http://www.w3.org/2000/svg" xmlns:xlink="http://www.w3.org/1999/xlink" xml:space="preserve" xmlns:serif="http://www.serif.com/" style="fill-rule:evenodd;clip-rule:evenodd;stroke-linejoin:round;stroke-miterlimit:1.41421;">
    <g transform="matrix(1,0,0,1,-690.052,-1.42109e-14)">
        <g id="bootstrap" transform="matrix(1.03392,0,0,1.03392,238.492,-109.241)">
            <rect x="436.745" y="105.657" width="193.438" height="193.438" style="fill:none;"/>
            <clipPath id="_clip1">
                <rect x="436.745" y="105.657" width="193.438" height="193.438"/>
            </clipPath>
            <g clip-path="url(#_clip1)">
                <g transform="matrix(0.96719,0,0,0.96719,-230.667,105.657)">
                    <path d="M890.052,34.417C890.052,15.422 874.631,0 855.635,0L724.47,0C705.474,0 690.052,15.422 690.052,34.417L690.052,165.583C690.052,184.578 705.474,200 724.47,200L855.635,200C874.631,200 890.052,184.578 890.052,165.583L890.052,34.417Z" style="fill:rgb(90,90,90);"/>
                </g>
                <g transform="matrix(1.22719,0,0,1.0475,-397.5,109.148)">
                    <text x="713.179px" y="143.109px" style="font-family:'ArchivoNarrow-SemiBold', 'Archivo Narrow SemiBold', sans-serif;font-weight:600;font-size:157.751px;fill:white;">B</text>
                </g>
            </g>
        </g>
    </g>
</svg>
