<?xml version="1.0" encoding="UTF-8" standalone="no"?>
<!DOCTYPE svg PUBLIC "-//W3C//DTD SVG 1.1//EN" "http://www.w3.org/Graphics/SVG/1.1/DTD/svg11.dtd">
<svg width="100%" height="100%" viewBox="0 0 514 493" version="1.1" xmlns="http://www.w3.org/2000/svg" xmlns:xlink="http://www.w3.org/1999/xlink" xml:space="preserve" xmlns:serif="http://www.serif.com/" style="fill-rule:evenodd;clip-rule:evenodd;stroke-linejoin:round;stroke-miterlimit:1.41421;" fill="#ffffff">
    <g id="Plan-de-travail1" serif:id="Plan de travail1" transform="matrix(0.920459,0,0,0.888887,-156.792,-50.0827)">
        <rect x="170.341" y="56.343" width="557.362" height="554.116" style="fill:none;"/>
        <clipPath id="_clip1">
            <rect x="170.341" y="56.343" width="557.362" height="554.116"/>
        </clipPath>
        <g clip-path="url(#_clip1)">
            <g transform="matrix(1.08642,0,0,1.125,171.83,46.0328)">
                <path d="M512,304C512,291.179 506.901,279.232 498.112,270.421C508.075,259.52 513.152,244.906 511.765,229.696C509.269,202.581 484.842,181.333 456.128,181.333L324.352,181.333C330.88,161.514 341.333,125.184 341.333,96C341.333,49.728 302.016,10.667 277.333,10.667C255.189,10.667 239.338,23.147 238.677,23.659C236.138,25.686 234.666,28.758 234.666,32L234.666,104.341L173.205,237.44L170.666,238.741L170.666,234.666C170.666,228.778 165.887,223.999 159.999,223.999L53.333,223.999C23.915,224 0,247.915 0,277.333L0,448C0,477.419 23.915,501.333 53.333,501.333L117.333,501.333C140.394,501.333 160.106,486.613 167.53,466.069C185.28,475.2 209.173,480 224,480L419.819,480C443.051,480 463.382,464.341 468.16,442.752C470.613,431.616 469.184,420.416 464.32,410.688C480.064,402.773 490.667,386.496 490.667,368C490.667,360.448 488.939,353.216 485.675,346.688C501.419,338.752 512,322.496 512,304Z" style="fill-rule:nonzero;"/>
            </g>
        </g>
    </g>
</svg>
